<svg width="22" height="22" viewBox="0 0 22 22" fill="none" xmlns="http://www.w3.org/2000/svg">
<mask id="mask0" mask-type="alpha" maskUnits="userSpaceOnUse" x="0" y="0" width="22" height="22">
<rect width="22" height="22" fill="#C4C4C4"/>
</mask>
<g mask="url(#mask0)">
<path d="M4.14258 7V15.4762H17.8569V7C17.8569 5.89543 16.9614 5 15.8569 5H6.14258C5.03801 5 4.14258 5.89543 4.14258 7Z" stroke="black" stroke-width="1.2"/>
<circle cx="11" cy="10.619" r="1.80952" stroke="#23A9FC" stroke-width="1.2"/>
<path d="M13.9526 15.381C13.9526 14.9932 13.8762 14.6093 13.7279 14.2511C13.5795 13.8929 13.362 13.5675 13.0879 13.2933C12.8137 13.0191 12.4883 12.8017 12.1301 12.6533C11.7719 12.5049 11.3879 12.4286 11.0002 12.4286C10.6125 12.4286 10.2286 12.5049 9.87041 12.6533C9.51221 12.8017 9.18674 13.0191 8.91258 13.2933C8.63843 13.5675 8.42096 13.8929 8.27259 14.2511C8.12422 14.6093 8.04785 14.9932 8.04785 15.381L11.0002 15.381H13.9526Z" stroke="#23A9FC" stroke-width="1.2"/>
<path d="M19 15.4762C13.7619 15.4445 3.28571 15.4762 3 15.4762V15.8572C3 16.9617 3.89543 17.8572 5 17.8572H17C18.1046 17.8572 19 16.9617 19 15.8572V15.4762Z" stroke="black" stroke-width="1.2" stroke-linejoin="round"/>
</g>
</svg>
